<?xml version="1.0" standalone="no"?>
<!DOCTYPE svg PUBLIC "-//W3C//DTD SVG 20010904//EN"
 "http://www.w3.org/TR/2001/REC-SVG-20010904/DTD/svg10.dtd">
<svg version="1.0" xmlns="http://www.w3.org/2000/svg"
 width="3600.000000pt" height="3600.000000pt" viewBox="0 0 3600.000000 3600.000000"
 preserveAspectRatio="xMidYMid meet">
<metadata>
Created by potrace 1.11, written by Peter Selinger 2001-2013
</metadata>
<g transform="translate(0.000000,3600.000000) scale(0.100000,-0.100000)"
fill="#000000" stroke="none">
<path d="M17757 24594 c-1 -1 -72 -5 -159 -8 -86 -4 -167 -9 -180 -11 -12 -2
-61 -6 -108 -10 -103 -8 -162 -13 -215 -20 -22 -2 -67 -7 -100 -10 -33 -4 -71
-8 -85 -10 -14 -2 -101 -16 -195 -30 -140 -22 -302 -51 -492 -90 -15 -3 -39
-8 -53 -11 -75 -15 -493 -120 -600 -150 -209 -59 -606 -186 -760 -244 -47 -17
-103 -37 -125 -44 -35 -11 -104 -39 -170 -67 -11 -4 -89 -36 -172 -69 -158
-63 -404 -167 -509 -215 -156 -72 -208 -97 -469 -226 -154 -77 -316 -158 -360
-182 -139 -74 -409 -221 -430 -234 -11 -7 -26 -15 -34 -19 -29 -15 -380 -223
-536 -319 -513 -314 -1270 -838 -1790 -1239 -110 -85 -568 -448 -575 -456 -3
-3 -59 -50 -125 -105 -138 -114 -434 -364 -485 -411 -19 -17 -98 -87 -175
-155 -77 -68 -142 -126 -145 -129 -3 -3 -50 -45 -105 -95 -126 -113 -100 -89
-255 -235 -261 -245 -379 -359 -670 -651 -428 -430 -725 -745 -870 -924 -36
-44 -77 -93 -91 -110 -15 -16 -43 -48 -62 -70 -20 -22 -32 -45 -29 -51 12 -21
207 -247 322 -374 41 -45 81 -90 90 -100 207 -239 857 -894 1275 -1285 76 -71
153 -143 169 -159 172 -162 812 -723 966 -846 24 -19 48 -40 54 -45 6 -6 47
-39 91 -75 44 -35 82 -67 85 -70 3 -3 25 -21 50 -39 25 -19 50 -39 55 -45 6
-6 44 -38 86 -71 42 -33 136 -107 209 -165 74 -58 210 -163 304 -233 94 -70
182 -137 196 -147 274 -206 959 -676 1235 -847 75 -47 367 -227 387 -238 787
-465 1414 -781 2098 -1060 343 -140 898 -335 1165 -411 256 -72 456 -122 710
-180 11 -2 36 -7 55 -10 19 -3 38 -8 41 -10 4 -2 24 -6 45 -10 22 -3 57 -9 79
-14 50 -11 335 -58 394 -65 23 -3 55 -7 70 -9 50 -9 233 -31 331 -41 173 -18
252 -24 395 -31 247 -14 803 -7 995 11 19 2 76 6 125 10 50 4 97 8 105 10 14
3 116 15 170 20 64 7 112 14 320 45 493 75 1027 204 1545 375 185 61 453 154
500 175 11 5 76 30 145 55 69 26 139 53 155 61 17 7 96 40 176 73 166 68 297
126 531 235 165 76 613 303 768 388 147 81 207 114 225 125 11 6 34 19 50 27
17 9 37 20 45 26 8 5 92 54 185 108 185 107 486 290 605 367 176 114 513 339
615 410 61 41 121 83 135 93 197 133 869 634 1040 775 8 7 60 48 115 92 88 70
293 236 350 283 11 10 45 37 75 62 30 25 57 48 60 51 3 3 34 30 70 60 56 46
99 83 144 124 6 6 38 33 71 60 33 28 62 52 65 55 3 3 43 39 90 80 93 81 145
127 170 150 9 8 38 35 66 59 94 84 248 226 333 306 47 44 123 116 170 160 151
142 394 381 603 592 292 296 348 355 593 623 38 41 83 91 101 110 40 44 163
187 248 288 l35 43 -91 107 c-50 59 -130 150 -177 202 -47 52 -90 100 -96 106
-26 30 -239 259 -315 339 -127 133 -718 724 -851 850 -168 160 -378 357 -403
378 -11 10 -39 35 -61 56 -22 20 -107 97 -190 170 -82 74 -166 148 -185 165
-39 34 -158 137 -204 176 -17 14 -48 41 -70 61 -23 19 -108 91 -191 160 -82
68 -152 126 -155 129 -3 4 -54 46 -115 94 -60 48 -119 95 -130 104 -61 50
-404 318 -490 382 -55 41 -104 78 -110 83 -107 82 -440 323 -640 462 -231 161
-723 485 -735 485 -5 0 -10 5 -10 10 0 6 -5 10 -11 10 -6 0 -29 13 -52 29 -59
40 -466 284 -627 375 -74 42 -144 82 -155 88 -11 7 -45 25 -75 41 -30 16 -109
59 -175 95 -119 65 -625 319 -720 362 -27 13 -97 45 -154 71 -57 27 -104 49
-106 49 -1 0 -29 12 -61 27 -33 15 -61 27 -64 27 -5 1 -194 80 -266 112 -17 7
-84 34 -150 59 -65 26 -132 52 -149 59 -52 23 -292 109 -415 149 -190 62 -404
130 -470 148 -25 7 -49 14 -55 15 -5 2 -44 12 -85 24 -196 54 -517 130 -745
176 -11 2 -31 6 -45 9 -14 3 -41 8 -60 11 -19 2 -46 7 -60 10 -58 11 -69 13
-106 18 -89 14 -162 25 -204 31 -25 3 -52 8 -60 10 -8 2 -44 7 -80 10 -36 3
-87 9 -115 12 -62 6 -88 9 -200 17 -49 4 -101 9 -115 11 -74 12 -812 28 -823
19z m523 -1558 c154 -9 212 -13 270 -21 25 -3 68 -8 95 -11 93 -11 189 -27
355 -60 41 -9 87 -17 101 -20 15 -3 84 -21 155 -40 71 -20 145 -39 164 -43
110 -25 470 -159 640 -239 47 -22 121 -56 164 -77 182 -84 514 -284 706 -423
339 -247 672 -552 895 -823 11 -13 52 -62 91 -109 259 -311 544 -778 709
-1165 26 -60 53 -123 60 -140 94 -215 249 -763 281 -995 1 -8 7 -44 12 -80 20
-122 30 -194 37 -280 3 -36 8 -83 10 -105 9 -88 19 -348 18 -480 -1 -182 -10
-319 -38 -565 -15 -129 -55 -347 -96 -517 -11 -49 -22 -95 -24 -103 -9 -42
-72 -251 -112 -370 -116 -343 -265 -654 -508 -1058 -12 -20 -106 -162 -117
-177 -5 -5 -55 -73 -112 -150 -159 -214 -253 -322 -466 -536 -482 -484 -992
-830 -1610 -1094 -188 -80 -348 -137 -590 -209 -79 -23 -396 -99 -465 -110
-54 -9 -239 -37 -275 -41 -19 -3 -55 -7 -80 -10 -46 -6 -71 -8 -247 -21 -187
-14 -578 -8 -768 11 -183 19 -266 30 -385 51 -47 8 -98 17 -115 20 -16 3 -46
9 -65 14 -19 5 -50 12 -69 15 -19 3 -37 8 -41 10 -4 2 -22 7 -41 10 -39 6
-284 73 -314 85 -11 5 -45 16 -75 25 -94 29 -321 115 -423 161 -53 24 -99 44
-102 44 -7 0 -232 112 -301 150 -165 92 -495 296 -514 320 -3 3 -38 29 -78 58
-40 29 -80 59 -90 67 -9 7 -44 35 -77 61 -262 208 -603 549 -785 785 -447 579
-701 1070 -909 1754 -12 39 -24 79 -26 90 -3 11 -20 86 -40 168 -19 81 -37
162 -40 180 -3 17 -12 68 -20 112 -7 44 -17 105 -21 135 -4 30 -8 62 -9 70 -1
8 -6 47 -9 85 -4 39 -9 81 -11 95 -24 155 -25 841 -1 967 2 10 7 52 11 93 4
41 8 77 10 80 2 3 6 30 10 60 5 45 42 250 59 337 10 49 79 305 107 398 161
531 439 1077 779 1530 106 142 112 148 248 307 90 104 335 356 417 428 125
109 182 156 295 243 69 53 130 101 136 106 6 5 64 45 130 88 450 301 909 518
1390 659 87 25 165 47 173 49 9 2 75 17 146 34 72 16 146 33 165 36 19 3 46 7
60 10 14 3 39 7 55 9 278 45 329 51 565 61 80 4 146 8 147 9 4 4 291 -2 403
-8z"/>
<path d="M17848 20714 c-2 -1 -39 -5 -83 -8 -66 -5 -208 -25 -300 -41 -35 -6
-159 -36 -190 -45 -317 -97 -485 -175 -770 -353 -187 -117 -452 -356 -610
-552 -233 -289 -401 -608 -503 -955 -28 -98 -68 -275 -77 -345 -2 -16 -7 -48
-10 -70 -25 -189 -25 -510 0 -694 13 -96 39 -226 61 -311 14 -52 27 -102 29
-110 2 -8 4 -16 5 -17 2 -2 3 -6 5 -10 1 -5 5 -21 10 -38 19 -70 100 -269 155
-377 213 -424 543 -796 938 -1057 51 -33 95 -61 98 -61 2 0 22 -11 43 -24 20
-13 76 -43 122 -66 46 -23 91 -45 100 -50 69 -36 286 -116 394 -145 86 -23 97
-25 124 -31 14 -3 28 -7 31 -9 4 -2 51 -11 106 -19 54 -8 115 -18 134 -21 161
-25 485 -25 685 0 207 26 517 107 675 177 335 149 543 278 768 477 211 186
391 398 525 621 32 52 62 102 67 110 60 98 194 419 226 540 29 110 64 263 69
295 3 22 10 67 15 100 30 175 32 507 5 730 -24 195 -110 513 -181 673 -13 29
-24 55 -24 59 0 10 -121 247 -141 275 -11 14 -19 29 -19 32 0 13 -157 236
-225 321 -130 159 -301 325 -461 446 -298 224 -607 374 -979 475 -14 4 -204
42 -240 48 -16 3 -57 8 -90 11 -33 3 -73 8 -90 12 -28 6 -392 13 -397 7z"/>
</g>
</svg>
