<?xml version="1.0" standalone="no"?>
<!DOCTYPE svg PUBLIC "-//W3C//DTD SVG 20010904//EN"
 "http://www.w3.org/TR/2001/REC-SVG-20010904/DTD/svg10.dtd">
<svg version="1.0" xmlns="http://www.w3.org/2000/svg"
 width="500.000000pt" height="500.000000pt" viewBox="0 0 500.000000 500.000000"
 preserveAspectRatio="xMidYMid meet">
<metadata>
Created by potrace 1.11, written by Peter Selinger 2001-2013
</metadata>
<g transform="translate(0.000000,500.000000) scale(0.100000,-0.100000)"
fill="#000000" stroke="none">
<path d="M1785 4060 c-400 -63 -766 -304 -979 -644 -293 -466 -324 -1153 -77
-1672 181 -380 518 -655 926 -758 174 -44 443 -59 610 -36 474 68 854 356
1023 777 19 47 32 86 30 88 -8 7 -590 296 -592 293 -1 -2 -10 -30 -20 -63 -76
-252 -261 -437 -491 -491 -110 -25 -315 -16 -420 20 -272 92 -460 336 -521
676 -24 128 -23 390 0 520 55 305 209 532 432 641 104 51 201 71 339 72 182 2
325 -51 448 -163 100 -92 196 -251 222 -370 5 -23 11 -31 23 -27 10 2 141 72
292 155 218 120 274 155 272 169 -7 39 -113 242 -161 308 -171 234 -431 410
-708 480 -189 47 -447 57 -648 25z"/>
<path d="M3670 1420 l0 -420 415 0 415 0 0 420 0 420 -415 0 -415 0 0 -420z"/>
</g>
</svg>
